<svg width="40" height="40" viewBox="0 0 40 40" fill="none" xmlns="http://www.w3.org/2000/svg">
<rect width="40" height="40" rx="8" fill="#E7E5E4"/>
<mask id="path-2-outside-1_153_373" maskUnits="userSpaceOnUse" x="9" y="6" width="21" height="27" fill="black">
<rect fill="white" x="9" y="6" width="21" height="27"/>
<path d="M20.2031 31.3906C16.974 31.3906 14.5573 30.6667 12.9531 29.2188C11.3594 27.7708 10.5208 25.9115 10.4375 23.6406H13.3594C13.5156 25.349 14.224 26.6146 15.4844 27.4375C16.7552 28.25 18.2865 28.6562 20.0781 28.6562C21.776 28.6562 23.1406 28.3073 24.1719 27.6094C25.2135 26.9115 25.7344 25.9635 25.7344 24.7656C25.7344 23.5052 25.1979 22.5885 24.125 22.0156C23.0521 21.4427 21.2031 20.8802 18.5781 20.3281C15.9635 19.7656 14.0833 18.9896 12.9375 18C11.8021 17.0104 11.2344 15.6927 11.2344 14.0469C11.2344 12.1927 11.974 10.6719 13.4531 9.48438C14.9427 8.29688 16.9167 7.70312 19.375 7.70312C21.9583 7.70312 24.0417 8.30208 25.625 9.5C27.2083 10.6979 28.0469 12.3906 28.1406 14.5781H25.1875C24.8854 11.8073 22.9896 10.4219 19.5 10.4219C17.8125 10.4219 16.5052 10.7396 15.5781 11.375C14.651 12.0104 14.1875 12.8542 14.1875 13.9062C14.1875 14.8646 14.5573 15.5833 15.2969 16.0625C16.0469 16.5417 17.4375 17.0052 19.4688 17.4531C21.5104 17.901 23.1302 18.3438 24.3281 18.7812C25.526 19.2188 26.5521 19.901 27.4062 20.8281C28.2604 21.7448 28.6875 22.9792 28.6875 24.5312C28.6875 26.5 27.901 28.1354 26.3281 29.4375C24.7656 30.7396 22.724 31.3906 20.2031 31.3906Z"/>
</mask>
<path d="M20.2031 31.3906C16.974 31.3906 14.5573 30.6667 12.9531 29.2188C11.3594 27.7708 10.5208 25.9115 10.4375 23.6406H13.3594C13.5156 25.349 14.224 26.6146 15.4844 27.4375C16.7552 28.25 18.2865 28.6562 20.0781 28.6562C21.776 28.6562 23.1406 28.3073 24.1719 27.6094C25.2135 26.9115 25.7344 25.9635 25.7344 24.7656C25.7344 23.5052 25.1979 22.5885 24.125 22.0156C23.0521 21.4427 21.2031 20.8802 18.5781 20.3281C15.9635 19.7656 14.0833 18.9896 12.9375 18C11.8021 17.0104 11.2344 15.6927 11.2344 14.0469C11.2344 12.1927 11.974 10.6719 13.4531 9.48438C14.9427 8.29688 16.9167 7.70312 19.375 7.70312C21.9583 7.70312 24.0417 8.30208 25.625 9.5C27.2083 10.6979 28.0469 12.3906 28.1406 14.5781H25.1875C24.8854 11.8073 22.9896 10.4219 19.5 10.4219C17.8125 10.4219 16.5052 10.7396 15.5781 11.375C14.651 12.0104 14.1875 12.8542 14.1875 13.9062C14.1875 14.8646 14.5573 15.5833 15.2969 16.0625C16.0469 16.5417 17.4375 17.0052 19.4688 17.4531C21.5104 17.901 23.1302 18.3438 24.3281 18.7812C25.526 19.2188 26.5521 19.901 27.4062 20.8281C28.2604 21.7448 28.6875 22.9792 28.6875 24.5312C28.6875 26.5 27.901 28.1354 26.3281 29.4375C24.7656 30.7396 22.724 31.3906 20.2031 31.3906Z" fill="#404040"/>
<path d="M12.9531 29.2188L12.2807 29.9589L12.2831 29.9611L12.9531 29.2188ZM10.4375 23.6406V22.6406H9.40013L9.43817 23.6773L10.4375 23.6406ZM13.3594 23.6406L14.3552 23.5495L14.2721 22.6406H13.3594V23.6406ZM15.4844 27.4375L14.9377 28.2749L14.9457 28.28L15.4844 27.4375ZM24.1719 27.6094L23.6153 26.7786L23.6114 26.7812L24.1719 27.6094ZM24.125 22.0156L23.654 22.8977L24.125 22.0156ZM18.5781 20.3281L18.3678 21.3058L18.3723 21.3067L18.5781 20.3281ZM12.9375 18L12.2805 18.7539L12.2839 18.7568L12.9375 18ZM13.4531 9.48438L12.8298 8.70244L12.8271 8.70458L13.4531 9.48438ZM28.1406 14.5781V15.5781H29.1844L29.1397 14.5353L28.1406 14.5781ZM25.1875 14.5781L24.1934 14.6865L24.2906 15.5781H25.1875V14.5781ZM15.2969 16.0625L14.7531 16.9018L14.7585 16.9052L15.2969 16.0625ZM19.4688 17.4531L19.2534 18.4297L19.2545 18.4299L19.4688 17.4531ZM24.3281 18.7812L23.9851 19.7206L24.3281 18.7812ZM27.4062 20.8281L26.6708 21.5057L26.6746 21.5099L27.4062 20.8281ZM26.3281 29.4375L25.6904 28.6672L25.6879 28.6693L26.3281 29.4375ZM20.2031 30.3906C17.1022 30.3906 14.971 29.6929 13.6232 28.4764L12.2831 29.9611C14.1436 31.6404 16.8457 32.3906 20.2031 32.3906V30.3906ZM13.6256 28.4786C12.243 27.2225 11.5109 25.6224 11.4368 23.604L9.43817 23.6773C9.53077 26.2005 10.4758 28.3192 12.2807 29.9589L13.6256 28.4786ZM10.4375 24.6406H13.3594V22.6406H10.4375V24.6406ZM12.3635 23.7317C12.5432 25.6963 13.3835 27.2601 14.9377 28.2748L16.0311 26.6002C15.0644 25.969 14.488 25.0016 14.3552 23.5495L12.3635 23.7317ZM14.9457 28.28C16.4055 29.2133 18.1319 29.6562 20.0781 29.6562V27.6562C18.441 27.6562 17.1049 27.2867 16.023 26.595L14.9457 28.28ZM20.0781 29.6562C21.9051 29.6562 23.4854 29.2814 24.7324 28.4375L23.6114 26.7812C22.7958 27.3332 21.647 27.6562 20.0781 27.6562V29.6562ZM24.7285 28.4401C26.0318 27.5669 26.7344 26.3153 26.7344 24.7656H24.7344C24.7344 25.6118 24.3953 26.256 23.6153 26.7786L24.7285 28.4401ZM26.7344 24.7656C26.7344 23.9912 26.5685 23.2657 26.1951 22.6277C25.8206 21.9878 25.2713 21.4941 24.596 21.1335L23.654 22.8977C24.0516 23.1101 24.307 23.3611 24.469 23.6379C24.6321 23.9166 24.7344 24.2796 24.7344 24.7656H26.7344ZM24.596 21.1335C23.3881 20.4885 21.4177 19.9035 18.7839 19.3495L18.3723 21.3067C20.9886 21.857 22.7161 22.3969 23.654 22.8977L24.596 21.1335ZM18.7885 19.3505C16.2296 18.8 14.5467 18.0684 13.5911 17.2432L12.2839 18.7568C13.62 19.9108 15.6975 20.7313 18.3678 21.3058L18.7885 19.3505ZM13.5945 17.2461C12.6988 16.4654 12.2344 15.4338 12.2344 14.0469H10.2344C10.2344 15.9516 10.9054 17.5554 12.2805 18.7539L13.5945 17.2461ZM12.2344 14.0469C12.2344 12.5039 12.8301 11.267 14.0792 10.2642L12.8271 8.70458C11.1178 10.0768 10.2344 11.8815 10.2344 14.0469H12.2344ZM14.0765 10.2663C15.3431 9.25654 17.0766 8.70312 19.375 8.70312V6.70312C16.7568 6.70312 14.5423 7.33721 12.8298 8.70244L14.0765 10.2663ZM19.375 8.70312C21.8063 8.70312 23.658 9.26578 25.0216 10.2975L26.2284 8.70253C24.4253 7.33839 22.1104 6.70312 19.375 6.70312V8.70312ZM25.0216 10.2975C26.3407 11.2955 27.0591 12.6967 27.1415 14.6209L29.1397 14.5353C29.0347 12.0845 28.0759 10.1004 26.2284 8.70253L25.0216 10.2975ZM28.1406 13.5781H25.1875V15.5781H28.1406V13.5781ZM26.1816 14.4697C26.0063 12.8619 25.3464 11.5431 24.1291 10.6535C22.9448 9.78811 21.3588 9.42188 19.5 9.42188V11.4219C21.1307 11.4219 22.2375 11.7483 22.949 12.2683C23.6275 12.7641 24.0666 13.5236 24.1934 14.6865L26.1816 14.4697ZM19.5 9.42188C17.7059 9.42188 16.1705 9.75663 15.0128 10.5501L16.1435 12.1999C16.8399 11.7225 17.9191 11.4219 19.5 11.4219V9.42188ZM15.0128 10.5501C13.8356 11.3569 13.1875 12.4986 13.1875 13.9062H15.1875C15.1875 13.2098 15.4664 12.6639 16.1435 12.1999L15.0128 10.5501ZM13.1875 13.9062C13.1875 15.1683 13.7006 16.2199 14.7531 16.9018L15.8406 15.2232C15.4139 14.9468 15.1875 14.5609 15.1875 13.9062H13.1875ZM14.7585 16.9052C15.6723 17.489 17.2201 17.9813 19.2534 18.4297L19.6841 16.4766C17.6549 16.0291 16.4215 15.5943 15.8353 15.2198L14.7585 16.9052ZM19.2545 18.4299C21.2762 18.8734 22.8471 19.305 23.9851 19.7206L24.6712 17.8419C23.4133 17.3825 21.7446 16.9286 19.683 16.4764L19.2545 18.4299ZM23.9851 19.7206C25.035 20.104 25.926 20.6973 26.6708 21.5057L28.1417 20.1505C27.1782 19.1048 26.0171 18.3335 24.6712 17.8419L23.9851 19.7206ZM26.6746 21.5099C27.3175 22.1998 27.6875 23.1689 27.6875 24.5312H29.6875C29.6875 22.7895 29.2033 21.2898 28.1379 20.1464L26.6746 21.5099ZM27.6875 24.5312C27.6875 26.1895 27.0437 27.5469 25.6905 28.6672L26.9658 30.2078C28.7584 28.7239 29.6875 26.8105 29.6875 24.5312H27.6875ZM25.6879 28.6693C24.345 29.7884 22.5478 30.3906 20.2031 30.3906V32.3906C22.9001 32.3906 25.1862 31.6908 26.9683 30.2057L25.6879 28.6693Z" fill="#404040" mask="url(#path-2-outside-1_153_373)"/>
</svg>
